<?xml version="1.0" encoding="UTF-8"?>
<svg width="56px" height="57px" viewBox="0 0 56 57" version="1.1" xmlns="http://www.w3.org/2000/svg" xmlns:xlink="http://www.w3.org/1999/xlink">
    <!-- Generator: Sketch 63.1 (92452) - https://sketch.com -->
    <title>Group 17</title>
    <desc>Created with Sketch.</desc>
    <g id="Page-1" stroke="none" stroke-width="1" fill="none" fill-rule="evenodd">
        <g id="Landing-Copy-2" transform="translate(-82.000000, -911.000000)" fill="#E2DCCF">
            <g id="Group-17" transform="translate(82.000000, 910.500000)">
                <path d="M12.7858751,18.0802641 C13.8337086,19.128214 25,26.5 25,26.5 C25,26.5 17.6275883,15.3339124 16.5797549,14.2859625 C15.5319214,13.2380125 13.8337086,13.2380125 12.7858751,14.2859625 C11.7380416,15.3339124 11.7380416,17.0323141 12.7858751,18.0802641" id="Fill-1"></path>
                <path d="M43.2140375,18.0802641 C42.1660876,19.128214 31,26.5 31,26.5 C31,26.5 38.371786,15.3339124 39.4197359,14.2859625 C40.4676859,13.2380125 42.1660876,13.2380125 43.2140375,14.2859625 C44.2619875,15.3339124 44.2619875,17.0323141 43.2140375,18.0802641" id="Fill-3"></path>
                <path d="M12.7858751,40.9197359 C13.8337086,39.871786 25,32.5 25,32.5 C25,32.5 17.6275883,43.6660876 16.5797549,44.7140375 C15.5319214,45.7619875 13.8337086,45.7619875 12.7858751,44.7140375 C11.7380416,43.6660876 11.7380416,41.9676859 12.7858751,40.9197359" id="Fill-5"></path>
                <path d="M43.2140375,40.9197359 C42.1660876,39.871786 31,32.5 31,32.5 C31,32.5 38.371786,43.6660876 39.4197359,44.7140375 C40.4676859,45.7619875 42.1660876,45.7619875 43.2140375,44.7140375 C44.2619875,43.6660876 44.2619875,41.9676859 43.2140375,40.9197359" id="Fill-7"></path>
                <path d="M53.3265045,31.5 C51.850032,31.5 29,29.0006733 29,29.0006733 C29,29.0006733 51.850032,26.5 53.3265045,26.5 C54.802977,26.5 56,27.6203878 56,29.0006733 C56,30.3809588 54.802977,31.5 53.3265045,31.5" id="Fill-9"></path>
                <path d="M2.67349552,31.5 C4.14996799,31.5 27,29.0006733 27,29.0006733 C27,29.0006733 4.14996799,26.5 2.67349552,26.5 C1.19702305,26.5 0,27.6203878 0,29.0006733 C0,30.3809588 1.19702305,31.5 2.67349552,31.5" id="Fill-11"></path>
                <path d="M26,54.8265045 C26,53.350032 28.4993267,30.5 28.4993267,30.5 C28.4993267,30.5 31,53.350032 31,54.8265045 C31,56.302977 29.8809588,57.5 28.4993267,57.5 C27.1203878,57.5 26,56.302977 26,54.8265045" id="Fill-13"></path>
                <path d="M26,3.17349552 C26,4.64996799 28.4993267,27.5 28.4993267,27.5 C28.4993267,27.5 31,4.64996799 31,3.17349552 C31,1.69702305 29.8809588,0.5 28.4993267,0.5 C27.1203878,0.5 26,1.69702305 26,3.17349552" id="Fill-15"></path>
            </g>
        </g>
    </g>
</svg>